<svg width="54" height="44" viewBox="0 0 54 44" fill="none" xmlns="http://www.w3.org/2000/svg">
<path d="M40.8613 18.1351V34.8128L26.1579 42L10.7193 34.8128V17.8904M48.9483 13.6979L26.1579 2C18.071 5.63038 3 13.6979 3 13.6979C3 13.6979 18.8062 22.3033 26.1579 26.2025L40.8613 18.1351L48.9483 13.6979ZM48.9483 13.6979L40.8613 18.1351L48.9483 13.6979ZM48.9483 13.6979V19.6478V13.6979Z" stroke="#A463B0" stroke-width="2.5"/>
<path d="M48.9145 26.6601C50.5386 26.6601 51.8552 25.2153 51.8552 23.4331C51.8552 21.6509 50.5386 20.2061 48.9145 20.2061C47.2904 20.2061 45.9738 21.6509 45.9738 23.4331C45.9738 25.2153 47.2904 26.6601 48.9145 26.6601Z" fill="white" stroke="white" stroke-width="2.5"/>
<path opacity="0.5" d="M48.9145 26.6601C50.5386 26.6601 51.8552 25.2153 51.8552 23.4331C51.8552 21.6509 50.5386 20.2061 48.9145 20.2061C47.2904 20.2061 45.9738 21.6509 45.9738 23.4331C45.9738 25.2153 47.2904 26.6601 48.9145 26.6601Z" fill="white" stroke="#A463B0" stroke-width="2.5"/>
</svg>
