<svg width="76" height="43" viewBox="0 0 76 43" fill="none" xmlns="http://www.w3.org/2000/svg">
<path d="M37.9528 19.6057C42.858 19.6057 46.8345 15.6293 46.8345 10.7241C46.8345 5.81889 42.858 1.84244 37.9528 1.84244C33.0476 1.84244 29.0712 5.81889 29.0712 10.7241C29.0712 15.6293 33.0476 19.6057 37.9528 19.6057Z" stroke="#4FD1D9" stroke-width="2.6303"/>
<path d="M21.1955 41C21.2279 40.7494 21.2674 40.4779 21.3155 40.1888C21.5883 38.5527 22.1302 36.399 23.1961 34.2673C24.2584 32.1427 25.8233 30.0733 28.1367 28.531C30.4388 26.9964 33.5899 25.9111 37.952 25.9111C42.3143 25.9111 45.4654 26.9964 47.7675 28.531C50.0809 30.0733 51.6458 32.1427 52.708 34.2673C53.774 36.399 54.3159 38.5527 54.5886 40.1888C54.6368 40.4779 54.6763 40.7494 54.7087 41H37.952H21.1955Z" stroke="#4FD1D9" stroke-width="2.6303"/>
<g opacity="0.5">
<path opacity="0.5" d="M64.5607 11.3727C67.425 11.3727 69.7471 9.05072 69.7471 6.18637C69.7471 3.32202 67.425 1 64.5607 1C61.6963 1 59.3743 3.32202 59.3743 6.18637C59.3743 9.05072 61.6963 11.3727 64.5607 11.3727Z" stroke="#4FD1D9" stroke-width="1.40909"/>
<path opacity="0.5" d="M54.8292 23.6901C54.8498 23.5227 54.8759 23.3378 54.9092 23.1383C55.0669 22.1916 55.3806 20.9442 55.9986 19.7084C56.6144 18.4766 57.5231 17.2742 58.8678 16.3778C60.2065 15.4853 62.0351 14.857 64.5594 14.857C67.0837 14.857 68.9123 15.4853 70.2509 16.3778C71.5957 17.2742 72.5043 18.4766 73.1203 19.7084C73.7381 20.9442 74.0519 22.1916 74.2098 23.1383C74.2429 23.3378 74.2691 23.5227 74.2895 23.6901H64.5594H54.8292Z" stroke="#4FD1D9" stroke-width="1.40909"/>
</g>
<g opacity="0.5">
<path opacity="0.5" d="M10.7288 11.3727C13.5931 11.3727 15.9151 9.05072 15.9151 6.18637C15.9151 3.32202 13.5931 1 10.7288 1C7.8644 1 5.54239 3.32202 5.54239 6.18637C5.54239 9.05072 7.8644 11.3727 10.7288 11.3727Z" stroke="#4FD1D9" stroke-width="1.40909"/>
<path opacity="0.5" d="M1 23.6901C1.02054 23.5227 1.04668 23.3378 1.07991 23.1383C1.2377 22.1916 1.55147 20.9442 2.1693 19.7084C2.78525 18.4766 3.69389 17.2742 5.03863 16.3778C6.3773 15.4853 8.20589 14.857 10.7302 14.857C13.2545 14.857 15.083 15.4853 16.4217 16.3778C17.7665 17.2742 18.6751 18.4766 19.2911 19.7084C19.9089 20.9442 20.2227 22.1916 20.3806 23.1383C20.4137 23.3378 20.4399 23.5227 20.4603 23.6901H10.7302H1Z" stroke="#4FD1D9" stroke-width="1.40909"/>
</g>
</svg>
