<svg xmlns="http://www.w3.org/2000/svg" width="254" height="68" viewBox="0 0 254 68" fill="none">
  <path d="M125.043 0.571051V40.5447C125.041 40.6955 124.981 40.8396 124.876 40.9463C124.77 41.0529 124.628 41.1137 124.479 41.1157H120.373C119.43 41.1164 118.502 40.8778 117.675 40.4215C116.847 39.9652 116.145 39.306 115.634 38.5041L96.9971 9.3424L97.6364 23.908V40.5447C97.6345 40.6955 97.5744 40.8396 97.4691 40.9463C97.3637 41.0529 97.2214 41.1137 97.0724 41.1157H91.6421C91.4931 41.1137 91.3508 41.0529 91.2454 40.9463C91.1401 40.8396 91.08 40.6955 91.0781 40.5447V0.571051C91.08 0.420212 91.1401 0.276106 91.2454 0.169438C91.3508 0.0627695 91.4931 0.001972 91.6421 0H95.7261C96.6676 0.0005069 97.594 0.238933 98.4214 0.693654C99.2489 1.14837 99.9511 1.805 100.464 2.60399L119.102 31.72L118.522 17.2077V0.571051C118.522 0.419599 118.582 0.27435 118.688 0.167257C118.793 0.0601637 118.937 0 119.087 0H124.517C124.659 0.0114058 124.792 0.0763434 124.89 0.182029C124.987 0.287715 125.042 0.426493 125.043 0.571051Z" fill="url(#paint0_linear_1_61)"/>
  <path d="M180.886 41.1156H175.198C175.109 41.1148 175.022 41.0922 174.943 41.0498C174.864 41.0075 174.797 40.9465 174.746 40.8721C174.695 40.7976 174.662 40.7118 174.65 40.6217C174.638 40.5316 174.647 40.4399 174.677 40.3542L189.745 0.548734C189.81 0.382069 189.923 0.239898 190.07 0.141742C190.216 0.0435859 190.389 -0.00574256 190.564 0.000532318H197.689C197.858 0.002021 198.022 0.0549796 198.161 0.152634C198.301 0.250288 198.408 0.3882 198.47 0.548734L213.494 40.3542C213.524 40.4399 213.533 40.5316 213.521 40.6217C213.509 40.7118 213.476 40.7976 213.425 40.8721C213.374 40.9465 213.307 41.0075 213.228 41.0498C213.149 41.0922 213.062 41.1148 212.973 41.1156H207.285C207.171 41.1161 207.06 41.0815 206.966 41.0163C206.871 40.9511 206.798 40.8584 206.757 40.7501L194.614 8.01036C194.575 7.90012 194.504 7.80487 194.41 7.73756C194.316 7.67025 194.204 7.63414 194.089 7.63414C193.975 7.63414 193.863 7.67025 193.769 7.73756C193.675 7.80487 193.603 7.90012 193.564 8.01036L181.422 40.7501C181.379 40.8596 181.305 40.9532 181.21 41.0185C181.114 41.0838 181.001 41.1177 180.886 41.1156Z" fill="url(#paint1_linear_1_61)"/>
  <path d="M253.611 40.1424L242.253 25.3979C248.665 24.166 252.414 19.7708 252.414 13.0259C252.414 5.27729 247.453 0 238.677 0H222.837C222.615 0 222.402 0.0897294 222.244 0.249448C222.087 0.409166 221.999 0.625789 221.999 0.851665C221.999 1.57065 222.138 2.2826 222.409 2.94686C222.68 3.61111 223.077 4.21467 223.577 4.72307C224.077 5.23147 224.671 5.63476 225.325 5.9099C225.978 6.18505 226.679 6.32666 227.386 6.32666H238.018C243.323 6.32666 245.867 9.08698 245.867 13.0716C245.867 17.0561 243.383 19.9153 238.018 19.9153H222.837C222.614 19.9173 222.401 20.0087 222.244 20.1696C222.087 20.3306 221.999 20.548 221.999 20.7746V40.5454C221.999 40.6966 222.058 40.8417 222.163 40.9487C222.269 41.0556 222.411 41.1157 222.56 41.1157H227.962C228.11 41.1137 228.252 41.053 228.357 40.9465C228.462 40.84 228.521 40.696 228.523 40.5454V25.7553H234.756L244.61 38.8269C245.138 39.5263 245.818 40.0922 246.596 40.48C247.375 40.8679 248.232 41.0672 249.099 41.0625H253.199C253.302 41.0567 253.401 41.0226 253.485 40.9638C253.57 40.905 253.637 40.8238 253.679 40.729C253.722 40.6342 253.738 40.5294 253.726 40.426C253.714 40.3226 253.674 40.2245 253.611 40.1424Z" fill="url(#paint2_linear_1_61)"/>
  <path d="M163.349 0H138.29C138.092 0 137.902 0.0802778 137.762 0.223174C137.621 0.366071 137.542 0.55988 137.542 0.761966C137.542 2.24326 138.12 3.66388 139.148 4.71131C140.177 5.75874 141.571 6.34718 143.025 6.34718H163.349C163.423 6.34821 163.496 6.33412 163.565 6.30577C163.633 6.27741 163.696 6.23535 163.748 6.18208C163.8 6.12881 163.842 6.0654 163.869 5.9956C163.897 5.92581 163.911 5.85104 163.91 5.77571V0.571475C163.91 0.41991 163.851 0.274553 163.746 0.167381C163.641 0.0602083 163.498 0 163.349 0ZM163.349 34.799H144.649C144.5 34.797 144.359 34.7362 144.254 34.6294C144.149 34.5227 144.09 34.3785 144.088 34.2275V23.9105C144.088 23.7589 144.147 23.6136 144.252 23.5064C144.357 23.3992 144.5 23.339 144.649 23.339H161.935C162.084 23.339 162.227 23.2788 162.332 23.1716C162.437 23.0645 162.496 22.9191 162.496 22.7676V17.5252C162.496 17.3737 162.437 17.2283 162.332 17.1211C162.227 17.014 162.084 16.9538 161.935 16.9538H138.38C138.157 16.9558 137.944 17.0474 137.787 17.2086C137.63 17.3699 137.542 17.5877 137.542 17.8148V40.2623C137.542 40.4886 137.631 40.7057 137.788 40.8657C137.945 41.0258 138.158 41.1157 138.38 41.1157H163.349C163.498 41.1157 163.641 41.0555 163.746 40.9483C163.851 40.8412 163.91 40.6958 163.91 40.5442V35.34C163.904 35.1931 163.842 35.0544 163.738 34.9533C163.633 34.8523 163.493 34.7969 163.349 34.799Z" fill="url(#paint3_linear_1_61)"/>
  <path d="M54.5627 3.42679L40.5539 24.3691C40.3269 24.6714 40.222 25.049 40.2602 25.4261C40.2984 25.8031 40.4769 26.1516 40.7598 26.4015C41.0427 26.6513 41.4091 26.784 41.7852 26.7728C42.1613 26.7616 42.5192 26.6074 42.787 26.3411L56.5724 14.3441C56.6519 14.2707 56.751 14.2224 56.8575 14.2052C56.964 14.188 57.0731 14.2026 57.1714 14.2473C57.2697 14.292 57.3528 14.3648 57.4104 14.4567C57.468 14.5485 57.4975 14.6554 57.4954 14.764V52.4721C57.4943 52.5866 57.4585 52.698 57.3928 52.7915C57.3272 52.8849 57.2348 52.9559 57.128 52.9951C57.0211 53.0342 56.905 53.0395 56.7951 53.0104C56.6852 52.9813 56.5867 52.919 56.5129 52.832L14.8291 2.5945C14.1636 1.78798 13.3311 1.13785 12.3899 0.689685C11.4486 0.241521 10.4215 0.006174 9.3804 0.000140749H7.92891C6.0357 0.000140749 4.22003 0.757731 2.88133 2.10625C1.54263 3.45477 0.790558 5.28376 0.790558 7.19086V60.2927C0.790558 62.1998 1.54263 64.0288 2.88133 65.3773C4.22003 66.7258 6.0357 67.4834 7.92891 67.4834C9.14877 67.4832 10.3482 67.1682 11.4129 66.5683C12.4775 65.9684 13.3717 65.1037 14.0103 64.0567L28.019 43.1144C28.246 42.8122 28.351 42.4345 28.3128 42.0575C28.2746 41.6804 28.0961 41.3319 27.8131 41.082C27.5302 40.8322 27.1639 40.6995 26.7878 40.7107C26.4117 40.7219 26.0537 40.8762 25.786 41.1424L12.0005 53.1395C11.921 53.2129 11.8219 53.2612 11.7154 53.2784C11.609 53.2956 11.4998 53.2809 11.4015 53.2362C11.3032 53.1915 11.2202 53.1187 11.1626 53.0269C11.105 52.935 11.0754 52.8282 11.0775 52.7196V15.0489C11.0786 14.9344 11.1144 14.823 11.1801 14.7296C11.2458 14.6361 11.3382 14.5651 11.445 14.526C11.5518 14.4868 11.6679 14.4815 11.7778 14.5106C11.8877 14.5397 11.9862 14.602 12.0601 14.689L53.7439 64.9265C54.4144 65.7258 55.25 66.368 56.1924 66.8083C57.1347 67.2486 58.1612 67.4765 59.2 67.4759H60.6887C61.6261 67.4759 62.5544 67.2899 63.4204 66.9285C64.2865 66.5672 65.0734 66.0375 65.7363 65.3698C66.3991 64.7021 66.9249 63.9094 67.2837 63.0369C67.6424 62.1645 67.827 61.2295 67.827 60.2852V7.19086C67.8271 6.24276 67.641 5.30402 67.2794 4.42866C66.9179 3.55329 66.3881 2.75859 65.7205 2.09028C65.0529 1.42197 64.2607 0.893246 63.3895 0.534536C62.5183 0.175825 61.5852 -0.00579103 60.644 0.000140749C59.4242 0.000288169 58.2247 0.315333 57.1601 0.915212C56.0955 1.51509 55.2012 2.37979 54.5627 3.42679Z" fill="url(#paint4_linear_1_61)"/>
  <path fill-rule="evenodd" clip-rule="evenodd" d="M91.1273 62.3345V67.2621C91.1273 67.2959 91.155 67.3234 91.1893 67.3234H96.4967C97.6785 67.3234 98.635 66.9718 99.2968 66.3258C99.9587 65.6796 100.3 64.7636 100.3 63.6844C100.3 62.4891 99.7362 61.4656 98.6961 60.8839C99.3557 60.3575 99.7368 59.5288 99.7368 58.5466C99.7368 57.6958 99.4221 56.8514 98.7975 56.2187C98.1706 55.5837 97.2447 55.1755 96.0493 55.1755H94.1158C93.323 55.1755 92.5801 55.3571 92.0292 55.7585C91.4691 56.1665 91.1273 56.7881 91.1273 57.6128V58.5629C91.1273 59.1703 91.6244 59.6629 92.238 59.6629C92.8515 59.6629 93.3487 59.1703 93.3487 58.5629V57.7465C93.3487 57.6025 93.378 57.5142 93.4137 57.4578C93.4483 57.403 93.5006 57.3595 93.5819 57.325C93.7615 57.2487 94.0309 57.2346 94.3931 57.2346H96.0245C96.4929 57.2346 96.8596 57.3807 97.1073 57.6106C97.3539 57.8396 97.4989 58.1667 97.4989 58.5629C97.4989 59.0153 97.3358 59.3552 97.0819 59.5837C96.8253 59.8148 96.4576 59.948 96.0245 59.948H93.5367C92.2059 59.948 91.1273 61.0166 91.1273 62.3345ZM93.3487 65.2481V62.6396C93.3487 62.2901 93.6346 62.0071 93.9871 62.0071H96.3393C96.8809 62.0071 97.3085 62.1902 97.6002 62.4785C97.8924 62.7674 98.0623 63.1758 98.0623 63.6519C98.0623 64.1569 97.8694 64.5486 97.5555 64.8171C97.2381 65.0886 96.7798 65.2481 96.2316 65.2481H93.3487Z" fill="url(#paint5_linear_1_61)"/>
  <path fill-rule="evenodd" clip-rule="evenodd" d="M247.459 61.7445L247.46 61.7446L250.281 62.5806L250.282 62.5809C250.666 62.6974 250.958 62.8422 251.151 63.025C251.333 63.1973 251.44 63.4147 251.44 63.7254C251.44 64.1519 251.225 64.5015 250.845 64.7572C250.458 65.0174 249.908 65.1712 249.294 65.1712C248.387 65.1712 247.699 64.6572 247.209 64.0659C246.842 63.6228 246.293 63.3356 245.725 63.4309C244.983 63.5554 244.461 64.2786 244.807 64.9469C245.588 66.453 247.214 67.3234 249.202 67.3234C250.388 67.3234 251.515 67.0217 252.356 66.4035C253.205 65.7781 253.746 64.8378 253.746 63.6179C253.746 62.4285 253.229 61.6617 252.568 61.166C251.926 60.6844 251.156 60.4645 250.65 60.3234L250.65 60.3233L248.615 59.7478L248.613 59.7472C248.223 59.6398 247.841 59.5145 247.557 59.3224C247.289 59.1401 247.133 58.9164 247.133 58.5893C247.133 58.2437 247.313 57.9351 247.65 57.7035C247.99 57.4692 248.481 57.3248 249.043 57.3353L249.045 57.3353C249.758 57.344 250.39 57.6062 250.812 58.0631C251.248 58.534 251.832 58.9951 252.463 58.8814C253.117 58.7637 253.558 58.1128 253.255 57.5212C252.966 56.9547 252.566 56.4781 252.071 56.1052C251.274 55.5044 250.248 55.1876 249.075 55.1755L249.073 55.1755C247.913 55.1715 246.852 55.4637 246.073 56.0538C245.284 56.651 244.804 57.5396 244.804 58.6661C244.804 59.6519 245.174 60.3495 245.708 60.838C246.23 61.3156 246.891 61.5782 247.459 61.7445Z" fill="url(#paint6_linear_1_61)"/>
  <path d="M226.374 55.6713L224.548 58.3433C224.521 58.3825 224.51 58.4298 224.516 58.4766C224.523 58.5233 224.546 58.5662 224.582 58.5974C224.618 58.6286 224.665 58.646 224.713 58.6463C224.761 58.6466 224.808 58.6299 224.845 58.5992L226.157 57.4881V62.9375L221.439 55.8166C221.173 55.4162 220.725 55.1755 220.245 55.1755C219.454 55.1755 218.813 55.8167 218.813 56.6077V67.3234H221.168V59.5542L225.886 66.6819C226.151 67.0825 226.6 67.3234 227.08 67.3234C227.871 67.3234 228.512 66.6823 228.512 65.8914V56.353C228.512 55.7027 227.985 55.1755 227.335 55.1755C227.303 55.1755 227.272 55.1767 227.241 55.1792L227.242 55.1755C227.078 55.1754 226.917 55.2163 226.774 55.2943C226.632 55.3722 226.46 55.5352 226.374 55.6713Z" fill="url(#paint7_linear_1_61)"/>
  <path d="M166.247 55.1755V67.3234H168.555V63.6152C168.555 63.164 169.108 62.9473 169.415 63.2788L173.151 67.3234H176.164L170.761 61.4426C170.588 61.2546 170.586 60.9662 170.757 60.7761L175.78 55.1755H172.839L169.421 59.0233C169.118 59.3643 168.555 59.15 168.555 58.694V55.1755H166.247Z" fill="url(#paint8_linear_1_61)"/>
  <path d="M142.951 55.1755V64.8442C142.951 66.2134 144.061 67.3234 145.43 67.3234H150.389C150.389 66.0888 149.388 65.0879 148.153 65.0879H147.733C146.364 65.0879 145.254 63.9779 145.254 62.6087V55.1755H142.951Z" fill="url(#paint9_linear_1_61)"/>
  <path d="M119.709 56.5652C119.982 55.736 120.756 55.1755 121.629 55.1755C122.502 55.1755 123.276 55.736 123.548 56.5652L127.083 67.3234H124.61L123.749 64.8444L122.084 59.7642C121.935 59.3083 121.29 59.3092 121.142 59.7656L119.935 63.4835L120.866 62.6769C120.915 62.6353 120.976 62.6126 121.04 62.613C121.104 62.6134 121.166 62.637 121.214 62.6793C121.262 62.7216 121.293 62.7799 121.301 62.8433C121.309 62.9066 121.294 62.9708 121.259 63.024L118.736 67.0679L118.649 67.3234H116.175L119.709 56.5652Z" fill="url(#paint10_linear_1_61)"/>
  <path d="M199.396 56.5652C199.123 55.736 198.349 55.1755 197.476 55.1755C196.603 55.1755 195.829 55.736 195.557 56.5652L192.022 67.3234H194.495L195.356 64.8444L197.021 59.7642C197.17 59.3083 197.815 59.3092 197.963 59.7656L199.17 63.4835L198.239 62.6769C198.19 62.6353 198.129 62.6126 198.065 62.613C198.001 62.6134 197.939 62.637 197.891 62.6793C197.843 62.7216 197.812 62.7799 197.804 62.8433C197.796 62.9066 197.811 62.9708 197.846 63.024L200.369 67.0679L200.456 67.3234H202.93L199.396 56.5652Z" fill="url(#paint11_linear_1_61)"/>
  <defs>
    <linearGradient id="paint0_linear_1_61" x1="108.061" y1="0" x2="108.061" y2="41.1157" gradientUnits="userSpaceOnUse">
      <stop stop-color="white"/>
      <stop offset="1" stop-color="#F0F6FF"/>
    </linearGradient>
    <linearGradient id="paint1_linear_1_61" x1="194.085" y1="0" x2="194.085" y2="41.1157" gradientUnits="userSpaceOnUse">
      <stop stop-color="white"/>
      <stop offset="1" stop-color="#F0F6FF"/>
    </linearGradient>
    <linearGradient id="paint2_linear_1_61" x1="237.864" y1="0" x2="237.864" y2="41.1157" gradientUnits="userSpaceOnUse">
      <stop stop-color="white"/>
      <stop offset="1" stop-color="#F0F6FF"/>
    </linearGradient>
    <linearGradient id="paint3_linear_1_61" x1="150.726" y1="0" x2="150.726" y2="41.1157" gradientUnits="userSpaceOnUse">
      <stop stop-color="white"/>
      <stop offset="1" stop-color="#F0F6FF"/>
    </linearGradient>
    <linearGradient id="paint4_linear_1_61" x1="34.3088" y1="0" x2="34.3088" y2="67.4834" gradientUnits="userSpaceOnUse">
      <stop stop-color="white"/>
      <stop offset="1" stop-color="#F0F6FF"/>
    </linearGradient>
    <linearGradient id="paint5_linear_1_61" x1="95.7138" y1="55.1755" x2="95.7138" y2="67.3234" gradientUnits="userSpaceOnUse">
      <stop stop-color="white"/>
      <stop offset="1" stop-color="#F0F6FF"/>
    </linearGradient>
    <linearGradient id="paint6_linear_1_61" x1="249.063" y1="55.1755" x2="249.063" y2="67.3234" gradientUnits="userSpaceOnUse">
      <stop stop-color="white"/>
      <stop offset="1" stop-color="#F0F6FF"/>
    </linearGradient>
    <linearGradient id="paint7_linear_1_61" x1="223.662" y1="55.1755" x2="223.662" y2="67.3234" gradientUnits="userSpaceOnUse">
      <stop stop-color="white"/>
      <stop offset="1" stop-color="#F0F6FF"/>
    </linearGradient>
    <linearGradient id="paint8_linear_1_61" x1="171.205" y1="55.1755" x2="171.205" y2="67.3234" gradientUnits="userSpaceOnUse">
      <stop stop-color="white"/>
      <stop offset="1" stop-color="#F0F6FF"/>
    </linearGradient>
    <linearGradient id="paint9_linear_1_61" x1="146.67" y1="55.1755" x2="146.67" y2="67.3234" gradientUnits="userSpaceOnUse">
      <stop stop-color="white"/>
      <stop offset="1" stop-color="#F0F6FF"/>
    </linearGradient>
    <linearGradient id="paint10_linear_1_61" x1="121.629" y1="55.1755" x2="121.629" y2="67.3234" gradientUnits="userSpaceOnUse">
      <stop stop-color="white"/>
      <stop offset="1" stop-color="#F0F6FF"/>
    </linearGradient>
    <linearGradient id="paint11_linear_1_61" x1="197.476" y1="55.1755" x2="197.476" y2="67.3234" gradientUnits="userSpaceOnUse">
      <stop stop-color="white"/>
      <stop offset="1" stop-color="#F0F6FF"/>
    </linearGradient>
  </defs>
</svg>